HIERARCHY
ROOT root
{
	OFFSET	0	13.1	24.9
	CHANNELS 6  Xposition Yposition Zposition Xrotation Yrotation Zrotation
	JOINT spine_1
	{
		OFFSET	0	9.99999	0
		CHANNELS 3  Xrotation Yrotation Zrotation
		JOINT spine_2
		{
			OFFSET	0	112	-10
			CHANNELS 3  Xrotation Yrotation Zrotation
			JOINT spine_3
			{
				OFFSET	0	206.5	19.3
				CHANNELS 3  Xrotation Yrotation Zrotation
				JOINT spine_4
				{
					OFFSET	0	110.4	14.6
					CHANNELS 3  Xrotation Yrotation Zrotation
					JOINT neck_1
					{
						OFFSET	0	71.8	-50.3
						CHANNELS 3  Xrotation Yrotation Zrotation
						JOINT neck_2
						{
							OFFSET	0	86.2	-25.8
							CHANNELS 3  Xrotation Yrotation Zrotation
							JOINT head_ee
							{
								OFFSET	0	179.8	-8.7
								CHANNELS 3  Xrotation Yrotation Zrotation
								End Site
								{
									OFFSET	1	0	0
								}
							}
						}
					}
					JOINT left_clavicle
					{
						OFFSET	-43.2	22.4	-70.8
						CHANNELS 3  Xrotation Yrotation Zrotation
						JOINT left_shoulder
						{
							OFFSET	-93.9	-5.79999	48.7
							CHANNELS 3  Xrotation Yrotation Zrotation
							JOINT left_elbow
							{
								OFFSET	-291.4	-30.8	15.2
								CHANNELS 3  Xrotation Yrotation Zrotation
								JOINT left_lowarm_twist
								{
									OFFSET	-110.7	-3.89999	13.6
									CHANNELS 3  Xrotation Yrotation Zrotation
									JOINT left_hand
									{
										OFFSET	-110.7	-3.89999	13.6
										CHANNELS 3  Xrotation Yrotation Zrotation
										JOINT left_ee
										{
											OFFSET	-80.8	-5.10001	12.1
											CHANNELS 3  Xrotation Yrotation Zrotation
											End Site
											{
												OFFSET	1	0	0
											}
										}
									}
								}
							}
						}
					}
					JOINT right_clavicle
					{
						OFFSET	43.2	22.4	-70.8
						CHANNELS 3  Xrotation Yrotation Zrotation
						JOINT right_shoulder
						{
							OFFSET	93.9	-5.79999	48.7
							CHANNELS 3  Xrotation Yrotation Zrotation
							JOINT right_elbow
							{
								OFFSET	291.4	-30.8	15.2
								CHANNELS 3  Xrotation Yrotation Zrotation
								JOINT right_lowarm_twist
								{
									OFFSET	110.7	-3.89999	13.6
									CHANNELS 3  Xrotation Yrotation Zrotation
									JOINT right_hand
									{
										OFFSET	110.7	-3.89999	13.6
										CHANNELS 3  Xrotation Yrotation Zrotation
										JOINT right_ee
										{
											OFFSET	80.8	-5.10001	12.1
											CHANNELS 3  Xrotation Yrotation Zrotation
											End Site
											{
												OFFSET	1	0	0
											}
										}
									}
								}
							}
						}
					}
				}
			}
		}
	}
	JOINT left_hip
	{
		OFFSET	-82.8	-127.5	0.300001
		CHANNELS 3  Xrotation Yrotation Zrotation
		JOINT left_knee
		{
			OFFSET	-28.2	-396.7	2.2
			CHANNELS 3  Xrotation Yrotation Zrotation
			JOINT left_ankle
			{
				OFFSET	-11.7	-411.3	35.4
				CHANNELS 3  Xrotation Yrotation Zrotation
				JOINT left_toes
				{
					OFFSET	0	-60	-88.6
					CHANNELS 3  Xrotation Yrotation Zrotation
					JOINT left_foot_ee
					{
						OFFSET	-22.5	-16.5	-42.2
						CHANNELS 3  Xrotation Yrotation Zrotation
						End Site
						{
							OFFSET	1	0	0
						}
					}
				}
			}
		}
	}
	JOINT right_hip
	{
		OFFSET	82.8	-127.5	0.300001
		CHANNELS 3  Xrotation Yrotation Zrotation
		JOINT right_knee
		{
			OFFSET	28.2	-396.7	2.2
			CHANNELS 3  Xrotation Yrotation Zrotation
			JOINT right_ankle
			{
				OFFSET	11.7	-411.3	35.4
				CHANNELS 3  Xrotation Yrotation Zrotation
				JOINT right_toes
				{
					OFFSET	0	-60	-88.6
					CHANNELS 3  Xrotation Yrotation Zrotation
					JOINT right_foot_ee
					{
						OFFSET	22.5	-16.5	-42.2
						CHANNELS 3  Xrotation Yrotation Zrotation
						End Site
						{
							OFFSET	1	0	0
						}
					}
				}
			}
		}
	}
}
MOTION
Frames: 15
Frame Time: 0.02
2932.39335593 686.896 -1660.51508234 41.8957994108 71.7090543591 -42.0247754754 -3.88672 0.362488 0.360579 -3.88671 0.338809 0.382914 -3.88428 0.220011 0.461529 -3.88446 0.290139 0.420992 -12.748 0.379791 6.20489 -12.6449 -3.20207 6.05117 -0.0 0.0 -0.0 3.18699 -15.4923 4.94665 0.694795 -5.06954 66.1506 2.05504 -45.5059 0.861949 -36.6957 -2.6068 3.81338 -0.497181 -0.984218 -3.74599 -0.0 0.0 -0.0 7.0368 23.5565 -12.5487 -13.1143 7.43404 -62.5334 0.309513 8.71712 -0.0235906 38.7502 0.28586 4.84875 5.05587 -25.8846 -43.2921 0.0 0.0 0.0 -12.6315 7.65699 8.64751 -0.792992 0.0318389 0.117528 20.6508 8.02917 -2.81144 -30.682 0.0 0.0 -0.0 0.0 -0.0 16.8318 22.1576 -4.57289 -66.7686 2.97346 -9.22676 -21.9562 -8.33599 -3.30233 25.8493 -0.0 -0.0 0.0 0.0 0.0 
2910.69517438 688.964 -1644.86043015 48.2131266536 73.5974095839 -48.2828332601 -3.70976 0.197709 0.3536 -3.70971 0.174808 0.365464 -3.70845 0.0684108 0.399301 -3.70865 0.130614 0.383486 -13.1803 0.270883 6.12077 -13.0813 -3.31121 5.92539 -0.0 0.0 -0.0 3.22246 -14.32 5.12591 2.26976 -4.3274 65.168 2.17865 -47.1763 0.951383 -36.2916 -2.56568 3.7818 -0.607699 -0.843981 -4.42695 -0.0 0.0 -0.0 7.06575 22.1741 -12.7382 -14.6379 7.15274 -62.3023 0.334399 9.40592 -0.0275101 38.5206 0.274558 4.82164 5.1511 -26.3198 -44.1163 0.0 0.0 0.0 -14.9432 7.86624 8.67389 0.452483 -0.0188968 -0.0668652 19.1639 7.69546 -2.62662 -28.749 0.0 0.0 -0.0 0.0 -0.0 19.6463 19.6862 -5.16825 -64.0803 2.65632 -8.95909 -23.0088 -7.24276 -3.46196 26.6077 -0.0 -0.0 0.0 0.0 0.0 
2894.78560401 693.586 -1627.26217149 56.1431117449 76.1282522309 -55.9850369891 -3.55244 0.17207 0.16204 -3.55244 0.161411 0.172661 -3.55192 0.108724 0.209868 -3.55196 0.140504 0.190063 -12.0573 0.504893 5.66232 -11.9699 -2.68709 5.58566 -0.0 0.0 -0.0 3.1033 -12.2391 5.05524 3.59296 -5.26368 64.8196 2.40154 -49.9428 1.11853 -36.8206 -2.61956 3.82309 -0.684873 -2.50323 -5.6662 -0.0 0.0 -0.0 7.05399 20.3495 -12.8678 -15.8102 8.17661 -61.8622 0.330132 9.288 -0.0268171 38.2218 0.260017 4.7863 5.29666 -26.7862 -45.3779 0.0 0.0 0.0 -15.6842 7.99752 8.32499 1.2613 -0.0539897 -0.186015 18.3298 6.37727 -2.52186 -24.636 0.0 0.0 -0.0 0.0 -0.0 21.3109 19.7582 -6.10467 -61.0819 2.31794 -8.64355 -23.0937 -5.60507 -3.47861 25.7185 -0.0 -0.0 0.0 0.0 0.0 
2878.80644572 694.728 -1617.96019551 56.5481003334 77.0939674783 -55.8343284245 -3.19874 -0.0759654 0.0147766 -3.19874 -0.0767518 0.00991278 -3.19876 -0.0766413 -0.0107333 -3.19875 -0.0773746 0.00150544 -12.9987 0.661434 4.28528 -12.9481 -1.43279 4.29013 -0.0 0.0 -0.0 3.09987 -10.2961 5.2115 5.04975 -5.20446 64.0115 2.53855 -51.4994 1.22459 -38.328 -2.77513 3.93801 -0.663868 -3.45055 -5.93549 -0.0 0.0 -0.0 6.71883 18.9443 -12.249 -17.2817 9.71538 -61.874 0.374423 10.5079 -0.0344308 36.2851 0.170272 4.55552 5.12071 -28.3272 -43.9433 0.0 0.0 0.0 -16.7145 7.28638 7.94487 2.61882 -0.116668 -0.384871 12.1916 2.96399 -1.72536 -21.9464 0.0 0.0 -0.0 0.0 -0.0 22.4246 19.7829 -6.19506 -57.2201 1.90741 -8.21211 -22.5655 -0.933467 -3.42528 25.4397 -0.0 -0.0 0.0 0.0 0.0 
2861.50673269 695.072 -1610.38090264 55.2302426 77.4599265763 -54.235305041 -2.96688 -0.209941 -0.139387 -2.96689 -0.200646 -0.152464 -2.96634 -0.154005 -0.199465 -2.96635 -0.183574 -0.17264 -12.722 1.76393 6.06647 -12.6182 -0.486675 6.31952 -0.0 0.0 -0.0 2.73737 -7.19846 4.7207 6.66358 -6.21863 63.6726 2.76232 -53.831 1.40254 -39.3551 -2.88284 4.01395 -0.421199 -4.0274 -4.54487 -0.0 0.0 -0.0 6.58263 18.5714 -11.9818 -19.2214 12.001 -61.563 0.370045 10.3877 -0.0336369 36.3825 0.174597 4.5672 5.32799 -25.347 -45.5752 0.0 0.0 0.0 -17.4368 9.5345 7.76018 2.69132 -0.120148 -0.395449 6.9022 -1.80528 -1.00604 -17.9341 0.0 0.0 -0.0 0.0 -0.0 22.4346 17.0066 -5.09882 -51.8387 1.38605 -7.56745 -21.738 1.67175 -3.32346 26.5283 -0.0 -0.0 0.0 0.0 0.0 
2844.31101457 697.424 -1597.20987635 58.1970183058 78.515826307 -56.8242279095 -2.70622 -0.335652 -0.220597 -2.70626 -0.320934 -0.241508 -2.70486 -0.248392 -0.315637 -2.70488 -0.295123 -0.272447 -13.3516 1.09866 3.02986 -13.3258 0.207573 3.22021 -0.0 0.0 -0.0 2.9157 -5.70748 5.20174 6.96776 -7.26087 62.7493 2.81797 -54.3734 1.44763 -42.3534 -3.20486 4.22452 -0.348828 -7.0368 -5.34769 -0.0 0.0 -0.0 6.16736 17.05 -11.1971 -19.1872 13.4903 -61.9295 0.424065 11.8638 -0.0440616 37.0708 0.20574 4.64951 5.53301 -29.3864 -47.4479 0.0 0.0 0.0 -18.2015 7.19889 7.70011 5.2682 -0.252509 -0.768521 -0.991704 -3.53608 0.148707 -13.4301 0.0 0.0 -0.0 0.0 -0.0 22.8128 14.4488 -5.785 -47.147 0.982874 -6.96821 -20.3644 1.81947 -3.11417 23.0164 -0.0 -0.0 0.0 0.0 0.0 
2822.88814862 700.292 -1588.04480006 55.8415459055 78.976677193 -54.4380534545 -2.61658 -0.397932 -0.186783 -2.61664 -0.38524 -0.211726 -2.61521 -0.318655 -0.302816 -2.61516 -0.36248 -0.24869 -13.8633 1.57638 3.62524 -13.8267 0.782069 3.9352 -0.0 0.0 -0.0 3.0613 -4.27333 5.60254 8.05015 -4.68515 62.2531 3.05932 -56.5694 1.6465 -37.6447 -2.70423 3.88642 -1.14127 -7.16967 -10.8092 -0.0 0.0 -0.0 5.8845 15.876 -10.6733 -19.6205 14.0389 -62.1183 0.508978 14.1514 -0.0631778 35.4299 0.133139 4.45269 5.3055 -27.0306 -45.4629 0.0 0.0 0.0 -18.2627 3.74367 7.47428 5.97673 -0.29184 -0.870043 -5.99681 -6.42506 0.920023 -14.8841 0.0 0.0 -0.0 0.0 -0.0 22.9864 16.1448 -7.0935 -38.0861 0.349521 -5.72848 -19.7317 7.77268 -3.09318 16.5327 -0.0 -0.0 0.0 0.0 0.0 
2804.22627391 696.466 -1579.20700296 44.5439407687 78.2818698203 -43.9922364967 -2.24072 -0.361383 0.0144607 -2.24079 -0.361571 -0.00856461 -2.24081 -0.348127 -0.0980528 -2.24064 -0.359244 -0.0418414 -12.6239 2.8617 1.763 -12.6264 4.31985 2.52004 -0.0 0.0 -0.0 2.6484 -3.71755 4.82129 7.85528 -6.24979 61.2973 3.1514 -57.3452 1.72368 -36.138 -2.55011 3.76972 -0.40404 -10.5381 -7.22248 -0.0 0.0 -0.0 5.92323 16.7295 -10.6944 -20.0631 15.204 -62.1979 0.419293 11.734 -0.0430859 33.8617 0.0690586 4.26275 5.36412 -29.55 -45.9806 0.0 0.0 0.0 -19.4674 6.96141 9.52246 7.55536 -0.383979 -1.09448 -8.5879 -12.9978 1.37494 -17.6343 0.0 0.0 -0.0 0.0 -0.0 22.5249 12.2748 -5.30902 -25.4563 -0.191117 -3.8698 -16.2743 18.5756 -2.74824 11.4272 -0.0 -0.0 0.0 0.0 0.0 
2786.80203279 694.119 -1572.04167858 38.8192370647 77.7328104642 -38.4156082168 -2.16184 -0.208996 -0.0585873 -2.16186 -0.204844 -0.0717676 -2.16161 -0.180783 -0.120122 -2.16158 -0.197485 -0.0900629 -13.2066 3.07368 2.77473 -13.1961 4.11852 3.56934 -0.0 0.0 -0.0 2.65277 -1.51508 4.99912 9.45761 -6.15557 62.1781 3.37637 -59.1114 1.91497 -34.0459 -2.34134 3.60107 -0.18813 -6.84234 -4.17603 -0.0 0.0 -0.0 5.8579 18.3106 -10.4321 -19.9543 14.6332 -62.8544 0.362602 10.1832 -0.032308 33.6253 0.0598517 4.23397 5.35018 -30.4638 -45.8352 0.0 0.0 0.0 -20.4105 7.20985 10.4331 8.37604 -0.434321 -1.21015 -10.5863 -13.5734 1.70686 -15.3093 0.0 0.0 -0.0 0.0 -0.0 20.8078 3.12443 -4.55377 -15.9739 -0.321852 -2.42231 -21.2888 23.1622 -3.76914 10.0116 -0.0 -0.0 0.0 0.0 0.0 
2761.15431211 689.101 -1573.06596951 34.6998220548 76.9102796209 -34.7047296228 -2.03006 -0.284796 -0.145561 -2.03009 -0.274956 -0.163388 -2.0293 -0.226626 -0.225693 -2.02928 -0.259426 -0.187069 -11.9381 3.84357 4.37838 -11.8951 4.46197 5.28081 -0.0 0.0 -0.0 2.2265 -0.865573 4.21934 9.52051 -7.01587 62.3433 3.28655 -58.4273 1.83817 -30.1727 -1.97171 3.26934 -0.190236 -9.51258 -5.33235 -0.0 0.0 -0.0 5.51386 18.8318 -9.64642 -20.0192 12.1632 -63.1799 0.377421 10.5901 -0.0349796 34.9825 0.114328 4.39868 4.87096 -29.1078 -41.9567 0.0 0.0 0.0 -22.4345 7.4375 12.0738 9.26615 -0.490796 -1.33479 -11.4905 -19.5891 1.94939 -17.548 0.0 0.0 -0.0 0.0 -0.0 20.216 0.877361 -4.48801 -8.84358 -0.261854 -1.33061 -20.4567 21.6046 -3.56268 5.84819 -0.0 -0.0 0.0 0.0 0.0 
2738.92199454 684.615 -1571.41378014 32.7045637008 76.7525810042 -32.9346366833 -2.01712 -0.360683 -0.315886 -2.01713 -0.339852 -0.338197 -2.01504 -0.246888 -0.411002 -2.01514 -0.308699 -0.366853 -11.9014 4.07713 5.47035 -11.827 4.19508 6.39251 -0.0 0.0 -0.0 2.12041 -0.801741 4.01861 9.03379 -6.16296 63.2981 3.50653 -60.0564 2.02722 -27.1332 -1.69792 2.9921 -0.0323263 -10.3832 -4.63452 -0.0 0.0 -0.0 5.00925 20.7086 -8.39308 -20.8053 13.499 -64.8157 0.41802 11.6994 -0.0428275 32.6956 0.0247976 4.12043 4.77729 -29.5384 -41.2407 0.0 0.0 0.0 -23.6275 6.54766 12.7271 8.68583 -0.453755 -1.25362 -10.7163 -21.2717 1.84616 -17.3791 0.0 0.0 -0.0 0.0 -0.0 20.0288 -1.28893 -4.94756 -1.37226 -0.0540659 -0.203647 -21.1691 18.6192 -3.58284 1.88165 -0.0 -0.0 0.0 0.0 0.0 
2716.93883256 680.192 -1572.64199862 31.5838012752 76.5128572484 -32.0255156983 -1.96963 -0.269917 -0.382669 -1.96958 -0.24502 -0.399069 -1.96775 -0.140421 -0.446735 -1.96797 -0.209212 -0.418953 -10.6943 3.67744 4.91484 -10.6329 3.67025 5.71685 -0.0 0.0 -0.0 1.78868 -0.21292 3.42689 9.17003 -8.14002 63.9637 3.47859 -59.858 2.00303 -26.6059 -1.65194 2.94255 0.390643 -10.1783 -1.68785 -0.0 0.0 -0.0 5.72647 24.2121 -9.62352 -20.8086 11.3773 -65.829 0.295182 8.31928 -0.0214678 33.8859 0.0700074 4.26569 3.99198 -29.542 -35.5099 0.0 0.0 0.0 -24.8779 8.45359 13.4105 7.38869 -0.373958 -1.0709 -10.498 -19.2853 1.77358 -15.6168 0.0 0.0 -0.0 0.0 -0.0 19.4549 -1.98288 -4.87188 3.47016 0.158377 0.508816 -22.0078 20.0881 -3.77605 -1.76104 0.0 0.0 0.0 0.0 0.0 
2655.80490518 673.202 -1561.72802935 28.0521855149 78.4985183502 -29.113610497 -1.7031 -0.238808 -0.723382 -1.70283 -0.192295 -0.737111 -1.70001 -0.0104903 -0.761707 -1.7008 -0.130653 -0.750492 -12.6426 4.47865 7.51434 -12.4923 3.74486 8.48467 -0.0 0.0 -0.0 3.44949 2.20505 6.77581 7.8546 -10.3028 62.8037 3.15833 -57.4023 1.72953 -29.3357 -1.89485 3.19444 0.881444 -2.09095 5.03761 -0.0 0.0 -0.0 5.8074 25.68 -9.65366 -20.6232 9.6785 -66.2415 0.326393 9.1846 -0.0262169 30.792 -0.0411973 3.88628 2.22306 -29.8158 -24.2205 0.0 0.0 0.0 -25.707 6.27562 13.9111 6.89838 -0.34488 -1.00138 -18.9996 -18.3304 3.2059 -14.4986 0.0 0.0 -0.0 0.0 -0.0 20.6133 -3.6955 -4.38784 1.50725 0.0649957 0.222151 -22.7208 19.8687 -3.88998 4.5321 -0.0 -0.0 0.0 0.0 0.0 
2654.33180567 673.202 -1569.13110572 26.2856153786 77.7754545398 -27.3085285651 -1.7031 -0.238808 -0.723382 -1.70283 -0.192295 -0.737111 -1.70001 -0.0104903 -0.761707 -1.7008 -0.130653 -0.750492 -12.6426 4.47865 7.51434 -12.4923 3.74486 8.48467 -0.0 0.0 -0.0 3.44949 2.20505 6.77581 7.8546 -10.3028 62.8037 3.15833 -57.4023 1.72953 -29.3357 -1.89485 3.19444 0.881444 -2.09095 5.03761 -0.0 0.0 -0.0 5.8074 25.68 -9.65366 -20.6232 9.6785 -66.2415 0.326393 9.1846 -0.0262169 30.792 -0.0411973 3.88628 2.22306 -29.8158 -24.2205 0.0 0.0 0.0 -25.707 6.27562 13.9111 6.89838 -0.34488 -1.00138 -18.9996 -18.3304 3.2059 -14.4986 0.0 0.0 -0.0 0.0 -0.0 20.6133 -3.6955 -4.38784 1.50725 0.0649957 0.222151 -22.7208 19.8687 -3.88998 4.5321 -0.0 -0.0 0.0 0.0 0.0 
2653.82261881 673.202 -1571.8258891 25.6950350404 77.5100592243 -26.70394318 -1.7031 -0.238808 -0.723382 -1.70283 -0.192295 -0.737111 -1.70001 -0.0104903 -0.761707 -1.7008 -0.130653 -0.750492 -12.6426 4.47865 7.51434 -12.4923 3.74486 8.48467 -0.0 0.0 -0.0 3.44949 2.20505 6.77581 7.8546 -10.3028 62.8037 3.15833 -57.4023 1.72953 -29.3357 -1.89485 3.19444 0.881444 -2.09095 5.03761 -0.0 0.0 -0.0 5.8074 25.68 -9.65366 -20.6232 9.6785 -66.2415 0.326393 9.1846 -0.0262169 30.792 -0.0411973 3.88628 2.22306 -29.8158 -24.2205 0.0 0.0 0.0 -25.707 6.27562 13.9111 6.89838 -0.34488 -1.00138 -18.9996 -18.3304 3.2059 -14.4986 0.0 0.0 -0.0 0.0 -0.0 20.6133 -3.6955 -4.38784 1.50725 0.0649957 0.222151 -22.7208 19.8687 -3.88998 4.5321 -0.0 -0.0 0.0 0.0 0.0 
